#!OML:ASF F:\VICON\USERDATA\INSTALL\rory3\rory3.ASF
:FULLY-SPECIFIED
:DEGREES
518
root -3.56129 15.4181 23.0276 568.846 -13.8473 183.541
lowerback 2.16459 4.1958 -7.26035
upperback -5.35049 4.15936 -7.35482
thorax -6.86394 1.94161 -4.02284
lowerneck -12.2437 11.0583 -0.300703
upperneck -5.78454 14.3051 -10.2766
head 0.99559 6.81246 -2.50698
rclavicle 3.57812e-014 2.54444e-014
rhumerus 129.946 -29.8137 239.41
rradius 11.3348
rwrist 76.4674
rhand -16.1817 7.29781
rfingers 7.12502
rthumb 10.0249 -22.4434
lclavicle 3.57812e-014 2.54444e-014
lhumerus 4.95409 50.2795 5.11862
lradius 22.8929
lwrist -27.5696
lhand -4.51954 28.7998
lfingers 7.12502
lthumb 21.255 57.6543
rfemur 2.54729 9.40614 32.5118
rtibia 9.54166e-015
rfoot -44.2672 -46.9381
rtoes 1.14491
lfemur -86.3261 23.0234 -46.3794
ltibia 56.2914
lfoot -25.339 27.9224
ltoes 19.6621
519
root -3.56624 15.4144 23.0204 568.859 -13.9196 183.575
lowerback 2.17471 4.12752 -7.35763
upperback -5.15745 4.08516 -7.36181
thorax -6.66982 1.90952 -3.95685
lowerneck -12.6147 11.2189 -0.248867
upperneck -6.0176 14.4858 -10.2658
head 0.992055 6.89175 -2.48739
rclavicle 7.95139e-014 -1.74931e-014
rhumerus 129.8 -29.9775 239.547
rradius 11.5173
rwrist 76.0987
rhand -16.0783 7.47242
rfingers 7.12502
rthumb 10.1246 -22.264
lclavicle 7.95139e-014 -1.74931e-014
lhumerus 6.0053 52.0986 6.14636
lradius 22.6192
lwrist -29.1588
lhand -4.80403 28.9035
lfingers 7.12502
lthumb 20.9817 57.7886
rfemur 2.54108 9.35962 32.5597
rtibia 2.22639e-014
rfoot -43.9901 -47.1717
rtoes 0.680176
lfemur -86.4342 23.0991 -46.5153
ltibia 56.3359
lfoot -25.084 27.8998
ltoes 18.9034
520
root -3.57382 15.4114 23.011 568.913 -13.9408 183.568
lowerback 2.1386 3.99421 -7.47046
upperback -5.06489 3.91628 -7.3206
thorax -6.56275 1.83161 -3.82697
lowerneck -13.0635 11.3929 -0.41628
upperneck -5.94014 14.7502 -10.1181
head 1.07577 7.01003 -2.3702
rclavicle 1.90833e-014 -8.26944e-014
rhumerus 129.216 -30.1802 239.982
rradius 11.715
rwrist 75.45
rhand -15.856 7.56764
rfingers 7.12502
rthumb 10.3391 -22.1582
lclavicle 1.90833e-014 -8.26944e-014
lhumerus 5.62718 52.1335 5.82539
lradius 22.7037
lwrist -29.0801
lhand -5.10235 29.0253
lfingers 7.12502
lthumb 20.6951 57.9419
rfemur 2.52514 9.34172 32.5305
rtibia 3.18055e-015
rfoot -43.9402 -47.2205
rtoes 0.629437
lfemur -86.566 23.1981 -46.721
ltibia 56.4055
lfoot -24.9457 27.8103
ltoes 18.3239
521
root -3.58173 15.4078 23.001 568.953 -13.9507 183.547
lowerback 2.01516 4.35187 -7.43235
upperback -5.12631 4.36278 -7.66191
thorax -6.52839 2.02929 -4.24355
lowerneck -11.9779 11.1959 0.646474
upperneck -6.2748 14.3351 -10.6327
head 0.903099 6.8304 -2.7987
rclavicle -3.97569e-015 -8.5875e-014
rhumerus 129.52 -31.4705 239.881
rradius 11.525
rwrist 75.4948
rhand -15.773 7.79169
rfingers 7.12502
rthumb 10.4191 -21.9301
lclavicle -3.97569e-015 -8.5875e-014
lhumerus 7.27197 50.6763 7.21911
lradius 22.8425
lwrist -27.9928
lhand -5.5798 29.0233
lfingers 7.12502
lthumb 20.2362 57.9892
rfemur 2.52797 9.32347 32.486
rtibia 3.81667e-014
rfoot -44.1524 -47.1106
rtoes 0.606659
lfemur -86.6381 23.2598 -46.8759
ltibia 56.4933
lfoot -25.1664 27.5628
ltoes 18.5198
522
root -3.58449 15.4053 22.9942 568.901 -13.8837 183.644
lowerback 1.90377 4.22797 -7.56905
upperback -4.88756 4.27136 -7.42461
thorax -6.23497 2.00686 -3.88123
lowerneck -12.2523 11.4063 0.111018
upperneck -6.34797 14.6592 -10.7482
head 0.906893 6.9865 -2.71617
rclavicle 1.43125e-014 -1.30403e-013
rhumerus 129.066 -31.379 240.496
rradius 11.3612
rwrist 74.9141
rhand -15.8244 7.99477
rfingers 7.12502
rthumb 10.3695 -21.7296
lclavicle 1.43125e-014 -1.30403e-013
lhumerus 6.19256 50.4172 6.60271
lradius 23.0587
lwrist -27.3779
lhand -5.74707 29.0582
lfingers 7.12502
lthumb 20.0755 58.041
rfemur 2.59148 9.41607 32.5504
rtibia 3.18055e-014
rfoot -44.1808 -47.0912
rtoes 0.626899
lfemur -86.7291 23.4221 -46.8742
ltibia 56.5911
lfoot -25.2821 27.4106
ltoes 19.027
523
root -3.58723 15.3978 22.9934 568.99 -13.8427 183.728
lowerback 1.67228 4.23302 -7.53321
upperback -4.83485 4.32421 -7.38736
thorax -6.04312 2.03368 -3.84163
lowerneck -11.6308 11.4843 0.0967434
upperneck -6.65463 14.7291 -10.9748
head 0.726952 7.05209 -2.82636
rclavicle -7.4743e-014 2.22639e-014
rhumerus 128.678 -31.7194 240.915
rradius 11.2893
rwrist 74.5301
rhand -15.8805 8.22802
rfingers 7.12502
rthumb 10.3154 -21.499
lclavicle -7.4743e-014 2.22639e-014
lhumerus 5.61295 49.6282 6.29741
lradius 23.2851
lwrist -26.8282
lhand -5.86249 29.0812
lfingers 7.12502
lthumb 19.9645 58.0756
rfemur 2.49482 9.51484 32.5776
rtibia 5.725e-014
rfoot -44.3067 -46.9749
rtoes 0.765832
lfemur -86.9931 23.4803 -47.0251
ltibia 56.667
lfoot -25.062 27.4013
ltoes 18.9479
524
root -3.59474 15.3938 22.9916 569.218 -13.6875 183.883
lowerback 1.3813 4.30228 -7.42718
upperback -4.93253 4.43867 -7.44523
thorax -5.96565 2.08099 -3.95144
lowerneck -11.0718 11.5456 0.185256
upperneck -6.92072 14.7745 -11.0668
head 0.566117 7.10413 -2.90783
rclavicle 6.36111e-015 -3.97569e-014
rhumerus 128.194 -32.0808 241.065
rradius 11.4517
rwrist 74.4069
rhand -16.0764 8.44802
rfingers 7.12502
rthumb 10.1264 -21.2883
lclavicle 6.36111e-015 -3.97569e-014
lhumerus 5.04269 48.1993 5.88478
lradius 23.5981
lwrist -25.6951
lhand -6.19506 29.1562
lfingers 7.12502
lthumb 19.6448 58.1836
rfemur 2.22822 9.78729 32.5707
rtibia 1.59028e-014
rfoot -43.999 -47.2477
rtoes 0.523605
lfemur -87.4162 23.5136 -47.1264
ltibia 56.747
lfoot -25.0136 27.4822
ltoes 18.9968
525
root -3.60278 15.3916 22.9901 569.387 -13.6302 184.081
lowerback 1.23336 4.30479 -7.28373
upperback -4.93148 4.47278 -7.4389
thorax -5.86563 2.09315 -4.01206
lowerneck -11.1962 11.684 0.387312
upperneck -6.79358 14.9577 -11.2725
head 0.674434 7.18119 -2.98243
rclavicle -3.4191e-014 -2.38542e-014
rhumerus 127.731 -32.3209 241.243
rradius 11.5605
rwrist 74.1436
rhand -16.1583 8.63899
rfingers 7.12502
rthumb 10.0475 -21.1012
lclavicle -3.4191e-014 -2.38542e-014
lhumerus 4.47887 47.0449 5.57062
lradius 23.8878
lwrist -24.6537
lhand -6.5438 29.1208
lfingers 7.12502
lthumb 19.3095 58.1821
rfemur 2.00693 9.9837 32.6431
rtibia 6.36111e-015
rfoot -43.954 -47.2588
rtoes 0.821316
lfemur -87.7831 23.578 -47.1681
ltibia 56.8265
lfoot -25.1881 27.3186
ltoes 19.0841
526
root -3.60362 15.3928 22.9736 568.956 -14.1536 183.9
lowerback 1.83759 4.17281 -7.30288
upperback -4.6667 4.26817 -7.38771
thorax -5.93682 2.00072 -3.96422
lowerneck -11.1612 11.8037 0.703159
upperneck -6.70013 15.0993 -11.6457
head 0.770184 7.23976 -3.14245
rclavicle 6.44062e-014 -4.6118e-014
rhumerus 127.37 -32.635 241.363
rradius 11.6348
rwrist 73.7682
rhand -16.0475 8.93807
rfingers 7.12502
rthumb 10.1543 -20.7969
lclavicle 6.44062e-014 -4.6118e-014
lhumerus 4.82388 47.5599 6.21838
lradius 23.7122
lwrist -25.567
lhand -6.86125 28.7291
lfingers 7.12502
lthumb 19.0043 57.8207
rfemur 2.56958 9.30488 32.8404
rtibia -6.36111e-015
rfoot -43.8267 -47.2242
rtoes 0.117091
lfemur -87.1394 23.5355 -46.9602
ltibia 56.911
lfoot -25.2628 26.9836
ltoes 19.1128
527
root -3.61663 15.39 22.9883 569.452 -14.1695 184.168
lowerback 1.6316 4.1732 -6.87078
upperback -4.86912 4.29171 -7.4324
thorax -5.99286 1.99298 -4.24604
lowerneck -11.1435 11.9069 0.727006
upperneck -6.60829 15.2512 -11.7264
head 0.81626 7.31422 -3.15974
rclavicle 0 -1.95604e-013
rhumerus 127.127 -32.6289 240.978
rradius 11.4828
rwrist 74.0439
rhand -16.6593 9.26112
rfingers 7.12502
rthumb 9.56412 -20.5018
lclavicle 0 -1.95604e-013
lhumerus 5.06714 47.8665 6.75632
lradius 23.5045
lwrist -26.5188
lhand -7.1406 28.5878
lfingers 7.12502
lthumb 18.7356 57.7055
rfemur 1.9022 9.56992 32.923
rtibia -1.27222e-014
rfoot -42.153 -47.9385
rtoes -2.04549
lfemur -87.7616 23.1284 -46.7807
ltibia 56.9597
lfoot -25.671 27.1049
ltoes 19.385
528
root -3.61944 15.3902 22.9793 569.251 -14.3185 183.886
lowerback 2.06424 4.14301 -7.13791
upperback -4.70628 4.20176 -7.44061
thorax -6.09262 1.96015 -4.1269
lowerneck -11.2326 11.9544 0.521096
upperneck -6.69623 15.3217 -11.738
head 0.789269 7.35069 -3.12372
rclavicle -6.36111e-015 4.92986e-014
rhumerus 127.041 -32.7767 240.77
rradius 11.0339
rwrist 74.4132
rhand -17.3923 9.63965
rfingers 7.12502
rthumb 8.85675 -20.1545
lclavicle -6.36111e-015 4.92986e-014
lhumerus 4.66592 46.6437 6.76435
lradius 23.63
lwrist -25.8095
lhand -7.12 28.4629
lfingers 7.12502
lthumb 18.7554 57.5787
rfemur 2.26537 9.2212 32.7548
rtibia 6.36111e-015
rfoot -42.7189 -47.2936
rtoes -1.00639
lfemur -87.2962 23.0048 -46.7519
ltibia 57.0076
lfoot -25.6699 27.1304
ltoes 19.3707
529
root -3.62692 15.3867 22.9696 569.146 -14.5124 183.774
lowerback 2.16843 4.08661 -7.1981
upperback -4.45423 4.1512 -7.40331
thorax -5.89035 1.94162 -4.04074
lowerneck -11.4221 12.0424 0.591188
upperneck -6.71456 15.4265 -11.9829
head 0.851204 7.38802 -3.19625
rclavicle -1.51076e-014 7.95139e-014
rhumerus 126.936 -33.1438 240.932
rradius 10.6932
rwrist 74.0971
rhand -17.4765 10.101
rfingers 7.12502
rthumb 8.77549 -19.6965
lclavicle -1.51076e-014 7.95139e-014
lhumerus 4.3378 46.0344 6.89441
lradius 23.5705
lwrist -25.4604
lhand -7.07035 27.9776
lfingers 7.12502
lthumb 18.8032 57.0888
rfemur 2.44928 8.95548 32.7039
rtibia -1.59028e-014
rfoot -43.074 -46.8735
rtoes -0.3895
lfemur -87.0365 22.8179 -46.6168
ltibia 57.0772
lfoot -25.4964 27.2111
ltoes 19.4964
530
root -3.63245 15.381 22.9634 569.061 -14.756 183.746
lowerback 2.31502 4.04572 -7.17333
upperback -4.28565 4.11355 -7.3545
thorax -5.79529 1.9275 -3.99945
lowerneck -11.6374 12.0852 0.820704
upperneck -6.50139 15.4871 -12.2531
head 1.00889 7.39308 -3.2964
rclavicle 7.95139e-014 -1.90833e-014
rhumerus 126.504 -33.3914 240.97
rradius 10.8294
rwrist 73.8036
rhand -16.9998 10.3809
rfingers 7.12502
rthumb 9.23554 -19.3968
lclavicle 7.95139e-014 -1.90833e-014
lhumerus 4.67124 46.4239 7.77063
lradius 23.2772
lwrist -26.1402
lhand -7.20699 27.4932
lfingers 7.12502
lthumb 18.6717 56.6171
rfemur 2.59953 8.69324 32.7793
rtibia 1.27222e-014
rfoot -42.8671 -46.709
rtoes -0.763169
lfemur -86.8334 22.6071 -46.3941
ltibia 57.1301
lfoot -25.4709 27.2631
ltoes 19.6679
